<svg width="63" height="71" viewBox="0 0 63 71" fill="none" xmlns="http://www.w3.org/2000/svg">
<path d="M39.2969 49.3281C52.2842 49.3281 62.8125 38.3486 62.8125 24.8047C62.8125 11.2608 52.2842 0.28125 39.2969 0.28125C26.3096 0.28125 15.7812 11.2608 15.7812 24.8047C15.7812 38.3486 26.3096 49.3281 39.2969 49.3281Z" fill="#EAEAEA"/>
<path d="M53.8125 28.8038V28.8045C53.8285 34.4112 52.3049 39.9047 49.4226 44.6356L49.1911 45.0157H49.4375V69.6094H6.18751V45.0157H6.43396L6.20241 44.6356C3.32015 39.9047 1.79649 34.4112 1.8125 28.8045V28.8038C1.8125 24.9084 3.42443 21.1804 5.86733 17.7687C8.30984 14.3575 11.5718 11.2784 14.8428 8.68663C18.1126 6.0958 21.3837 3.99791 23.8381 2.5475C25.0651 1.82246 26.0872 1.25961 26.8022 0.878238C27.1597 0.687562 27.4404 0.542278 27.6314 0.444798C27.7055 0.406957 27.7661 0.37632 27.8125 0.35303C27.8589 0.37632 27.9195 0.406957 27.9937 0.444798C28.1847 0.542278 28.4653 0.687562 28.8228 0.878238C29.5378 1.25961 30.5599 1.82246 31.7869 2.5475C34.2413 3.99791 37.5125 6.0958 40.7823 8.68663C44.0532 11.2784 47.3152 14.3575 49.7577 17.7687C52.2006 21.1804 53.8125 24.9084 53.8125 28.8038Z" fill="url(#paint0_linear_1149_529)" stroke="#343020" stroke-width="0.5"/>
<path d="M34.375 15.1094C34.9791 15.1094 35.4688 14.5987 35.4688 13.9688C35.4688 13.3388 34.9791 12.8281 34.375 12.8281C33.7709 12.8281 33.2812 13.3388 33.2812 13.9688C33.2812 14.5987 33.7709 15.1094 34.375 15.1094Z" fill="#101010"/>
<path d="M11.4062 27.6562C12.0103 27.6562 12.5 27.1456 12.5 26.5156C12.5 25.8857 12.0103 25.375 11.4062 25.375C10.8022 25.375 10.3125 25.8857 10.3125 26.5156C10.3125 27.1456 10.8022 27.6562 11.4062 27.6562Z" fill="#101010"/>
<path d="M45.3125 52.75C45.9166 52.75 46.4062 52.2393 46.4062 51.6094C46.4062 50.9794 45.9166 50.4688 45.3125 50.4688C44.7084 50.4688 44.2188 50.9794 44.2188 51.6094C44.2188 52.2393 44.7084 52.75 45.3125 52.75Z" fill="#101010"/>
<path d="M36.5625 34.5C37.1666 34.5 37.6562 33.9893 37.6562 33.3594C37.6562 32.7294 37.1666 32.2188 36.5625 32.2188C35.9584 32.2188 35.4688 32.7294 35.4688 33.3594C35.4688 33.9893 35.9584 34.5 36.5625 34.5Z" fill="#101010"/>
<path d="M7.03125 36.7812C7.63531 36.7812 8.125 36.2706 8.125 35.6406C8.125 35.0107 7.63531 34.5 7.03125 34.5C6.42719 34.5 5.9375 35.0107 5.9375 35.6406C5.9375 36.2706 6.42719 36.7812 7.03125 36.7812Z" fill="#101010"/>
<path d="M14.6875 37.9219C15.2916 37.9219 15.7812 37.4112 15.7812 36.7812C15.7812 36.1513 15.2916 35.6406 14.6875 35.6406C14.0834 35.6406 13.5938 36.1513 13.5938 36.7812C13.5938 37.4112 14.0834 37.9219 14.6875 37.9219Z" fill="#101010"/>
<path d="M11.4062 52.75C12.0103 52.75 12.5 52.2393 12.5 51.6094C12.5 50.9794 12.0103 50.4688 11.4062 50.4688C10.8022 50.4688 10.3125 50.9794 10.3125 51.6094C10.3125 52.2393 10.8022 52.75 11.4062 52.75Z" fill="#101010"/>
<path d="M35.7345 55.0643H30.5151L30.9526 49.8323C31.0446 48.7423 30.9756 47.644 30.7481 46.5758L28.9062 37.9219L26.7187 27.6562L21.25 24.2344L17.1736 51.9641L16.875 56.165C16.875 57.7854 17.4662 59.345 18.5285 60.5275C19.5909 61.7099 21.0448 62.4266 22.5953 62.532L30 63.0156L10.3125 66.4375L6.99951 69.8594H36.032C36.9822 69.8598 37.9227 69.6612 38.7979 69.2753C39.673 68.8894 40.4649 68.3241 41.1265 67.6128C41.788 66.9016 42.3059 66.059 42.6492 65.1351C42.9925 64.2112 43.1543 63.2247 43.125 62.2343C43.018 60.2757 42.1892 58.4361 40.8119 57.0999C39.4346 55.7637 37.6154 55.0344 35.7345 55.0643Z" fill="#9D9D9C" stroke="#101010" stroke-width="3" stroke-linecap="round" stroke-linejoin="round"/>
<path d="M25.1765 27.5548L30.4517 26.1473L28.4414 16.509C28.0542 14.9932 27.1227 13.6909 25.8399 12.8719C24.5571 12.0529 23.0213 11.7799 21.5507 12.1096C20.1404 12.5104 18.9404 13.4787 18.2144 14.8018C17.4884 16.1249 17.2958 17.6944 17.6789 19.1655L18.9454 24.4626C19.2099 25.5985 19.8734 26.5896 20.8048 27.24" fill="#FFC9A9"/>
<path d="M25.1765 27.5548L30.4517 26.1473L28.4414 16.509C28.0542 14.9932 27.1227 13.6909 25.8399 12.8719C24.5571 12.0529 23.0213 11.7799 21.5507 12.1096C20.1404 12.5104 18.9404 13.4787 18.2144 14.8018C17.4884 16.1249 17.2958 17.6944 17.6789 19.1655L18.9454 24.4626C19.2099 25.5985 19.8734 26.5896 20.8048 27.24" stroke="#101010" stroke-width="3" stroke-linecap="round" stroke-linejoin="round"/>
<path d="M17.4067 11.5016L25.1665 9.91363C25.4585 9.85404 25.7588 9.855 26.0503 9.91645C26.3419 9.9779 26.619 10.0986 26.8658 10.2718C27.1127 10.4449 27.3244 10.6671 27.4889 10.9255C27.6534 11.184 27.7675 11.4737 27.8246 11.7781L28.4415 15.0565L16.2415 17.5531L15.6246 14.2747C15.5088 13.6606 15.6314 13.0236 15.9655 12.5036C16.2996 11.9837 16.818 11.6233 17.4067 11.5016Z" fill="#9D9D9C" stroke="#101010" stroke-width="3" stroke-linecap="round" stroke-linejoin="round"/>
<path d="M41.5489 39.5907L34.4395 43.0525L28.1975 34.1145C27.0611 32.488 25.1503 31.9211 23.9319 32.8484C22.7113 33.7757 22.6424 35.846 23.7788 37.4725L30.4397 47.0093C32.0267 49.2814 34.6955 50.073 36.4006 48.7784L43.4236 43.4437L41.5489 39.5907Z" fill="white" stroke="#101010" stroke-width="3" stroke-linecap="round" stroke-linejoin="round"/>
<path d="M43.4181 43.4437L47.9736 39.983C48.2823 39.7468 48.4959 39.3994 48.5728 39.0082C48.6498 38.617 48.5846 38.21 48.39 37.866C48.1954 37.5221 47.8852 37.2659 47.5197 37.147C47.1541 37.0281 46.7593 37.0551 46.4117 37.2227L41.5489 39.5907L43.4181 43.4437Z" fill="#FFC9A9" stroke="#101010" stroke-width="3" stroke-linecap="round" stroke-linejoin="round"/>
<path d="M35.4688 63.0156H33.2812" stroke="#101010" stroke-width="3" stroke-linecap="round" stroke-linejoin="round"/>
<path d="M42.0312 20.2V21.8139" stroke="#101010" stroke-width="2" stroke-linecap="round" stroke-linejoin="round"/>
<path d="M42.0312 26.6548V28.2688" stroke="#101010" stroke-width="2" stroke-linecap="round" stroke-linejoin="round"/>
<path d="M38.1627 24.2344H39.7103" stroke="#101010" stroke-width="2" stroke-linecap="round" stroke-linejoin="round"/>
<path d="M44.3522 24.2344H45.8998" stroke="#101010" stroke-width="2" stroke-linecap="round" stroke-linejoin="round"/>
<path d="M1.5625 69.8594H56.25" stroke="#101010" stroke-width="3" stroke-linecap="round" stroke-linejoin="round"/>
<defs>
<linearGradient id="paint0_linear_1149_529" x1="27.8125" y1="35.8176" x2="54.0626" y2="35.8176" gradientUnits="userSpaceOnUse">
<stop stop-color="#9B7D24"/>
<stop offset="1" stop-color="#D7B550"/>
</linearGradient>
</defs>
</svg>
