<svg width="70" height="73" viewBox="0 0 70 73" fill="none" xmlns="http://www.w3.org/2000/svg">
<path d="M69.9757 30.7363L63.3614 1.45428C63.314 1.24448 63.2006 1.06931 63.0486 0.970794C62.8962 0.872097 62.7193 0.858764 62.5592 0.934315L60.7651 1.77889L60.4786 0.560079C60.4296 0.351389 60.3151 0.178066 60.1626 0.0815908C60.0101 -0.0150698 59.8331 -0.0263652 59.6738 0.0504818C55.3974 2.11221 53.3083 2.7842 44.0923 4.15023C38.2856 5.01073 35.9333 8.21719 34.9916 10.4169C34.0565 8.21627 31.7133 5.01073 25.9076 4.15023C16.6915 2.7842 14.6023 2.11221 10.3259 0.0504818C10.1668 -0.0263652 9.9897 -0.0150698 9.83719 0.0815908C9.68468 0.178066 9.57019 0.351389 9.52118 0.560079L9.23553 1.77519L7.43966 0.933945C7.27992 0.85932 7.10255 0.872653 6.95076 0.971165C6.79883 1.06986 6.68578 1.24485 6.63837 1.45428L0.0243144 30.7363C-0.0679149 31.145 0.110038 31.5735 0.426047 31.7041L20.8255 40.1287L12.2795 48.9319C12.1344 49.0813 12.0501 49.3069 12.0501 49.5452V55.5615C12.0501 55.8779 12.198 56.1636 12.4258 56.2866C12.6534 56.4096 12.9165 56.3459 13.0933 56.1251L16.8914 51.3836C17.4835 50.6473 18.4332 50.6651 19.0078 51.4236L19.7432 52.3939C20.0216 52.7611 20.1716 53.2455 20.1657 53.7575C20.1598 54.2695 19.9986 54.7478 19.7104 55.1063L12.2352 64.4628C12.1169 64.6107 12.0503 64.8139 12.0503 65.0257V72.213C12.0503 72.5274 12.1964 72.8117 12.4216 72.9359C12.5 72.9791 12.5825 73 12.6645 73C12.8186 73 12.9705 72.9258 13.0869 72.7846L34.9889 46.2343L56.9244 72.785C57.0408 72.9259 57.1926 73 57.3465 73C57.4285 73 57.5113 72.9789 57.5895 72.9358C57.8149 72.8115 57.9608 72.5273 57.9608 72.213V65.0257C57.9608 64.8139 57.8941 64.6109 57.7759 64.4628L50.299 55.1045C50.0123 54.7478 49.851 54.2695 49.845 53.7575C49.8391 53.2455 49.9892 52.7613 50.2676 52.3939L51.003 51.4236C51.5777 50.6651 52.5269 50.6471 53.1185 51.3823L56.9176 56.1251C57.0946 56.3459 57.3578 56.4096 57.5851 56.2866C57.8127 56.1636 57.9608 55.8779 57.9608 55.5615V49.5452C57.9608 49.307 57.8766 49.0817 57.7319 48.9324L49.1912 40.1165L69.574 31.7042C69.89 31.5735 70.0678 31.145 69.9757 30.7363ZM56.3416 12.1975H61.9307L62.2788 13.6789H61.3289C60.9895 13.6789 60.7145 14.0313 60.7145 14.4659C60.7145 14.9005 60.9895 15.2529 61.3289 15.2529H62.6489L64.4986 23.1227H58.2931C57.9537 23.1227 57.6787 23.4751 57.6787 23.9097C57.6787 24.3443 57.9537 24.6967 58.2931 24.6967H64.8684L65.4562 27.1977C62.2785 28.6628 54.7887 31.5685 44.1304 32.2925C39.4911 32.6077 37.0928 34.8328 35.8977 36.6441C35.7924 36.8037 35.6943 36.9632 35.6028 37.1213V21.3638H44.7768C45.1162 21.3638 45.3911 21.0114 45.3911 20.5768C45.3911 20.1422 45.1162 19.7898 44.7768 19.7898H35.6028V16.9311C35.6839 16.3474 36.6295 11.0396 44.2335 9.91264C53.1278 8.59439 56.3329 7.49835 60.3762 5.58458L61.5606 10.6235H56.3414C56.002 10.6235 55.727 10.9759 55.727 11.4105C55.7272 11.8451 56.0023 12.1975 56.3416 12.1975ZM4.8052 26.0855H8.63676C8.97619 26.0855 9.25114 25.7331 9.25114 25.2985C9.25114 24.8639 8.97619 24.5115 8.63676 24.5115H5.17513L6.24141 19.9748H15.2142C15.5537 19.9748 15.8286 19.6224 15.8286 19.1878C15.8286 18.7532 15.5537 18.4008 15.2142 18.4008H6.61148L7.32965 15.3455H10.6608C11.0002 15.3455 11.2751 14.9931 11.2751 14.5585C11.2751 14.1239 11.0002 13.7715 10.6608 13.7715H7.69944L9.64984 5.47329C13.9164 7.49835 17.1652 8.63772 25.7665 9.91264C33.3906 11.0428 34.3004 16.3763 34.3741 16.9285V25.9931H32.2C31.8606 25.9931 31.5857 26.3455 31.5857 26.7801C31.5857 27.2147 31.8606 27.5671 32.2 27.5671H34.3741V28.5856H29.4534C29.114 28.5856 28.839 28.9379 28.839 29.3725C28.839 29.8071 29.114 30.1595 29.4534 30.1595H34.3741V37.1048C34.286 36.9524 34.1925 36.7993 34.0916 36.6456C32.9019 34.8339 30.5096 32.6079 25.8696 32.2927C15.2111 31.5687 7.72141 28.663 4.54384 27.1979L4.8052 26.0855ZM44.2335 5.71346C53.1375 4.39373 55.4968 3.70692 59.4909 1.81759L60.0213 4.0743C55.9557 6.00511 52.9528 7.0356 44.0923 8.34885C39.2706 9.06344 36.831 11.3957 35.6027 13.4258V12.7317C35.6848 12.144 36.633 6.84006 44.2335 5.71346ZM10.5091 1.81778C14.5033 3.70711 16.8625 4.39391 25.7667 5.71365C33.3908 6.84358 34.3005 12.1773 34.3742 12.7295V13.4093C33.1488 11.3827 30.7158 9.06159 25.9079 8.34904C17.3464 7.08004 14.3009 6.00826 10.0049 3.9632L10.5091 1.81778ZM7.63598 2.7018L8.88078 3.28491L3.20044 27.4534C3.1072 27.8499 3.26969 28.2709 3.57225 28.4169C6.43006 29.7947 14.3171 33.084 25.8047 33.8643C33.4662 34.3848 34.3099 40.2632 34.3741 40.84V44.0703L1.37046 30.4403L7.63598 2.7018ZM13.279 65.3568L20.5677 56.2336C21.09 55.5842 21.3836 54.7132 21.3945 53.7808C21.4053 52.8485 21.132 51.9665 20.6251 51.2975L19.8897 50.3272C18.8433 48.946 17.1145 48.913 16.0351 50.2551L13.2792 53.6955V49.922L22.2254 40.7066L24.7741 41.7594L21.9361 45.3884C21.696 45.6954 21.6957 46.1937 21.9354 46.5013C22.0554 46.6552 22.2128 46.7322 22.3703 46.7322C22.5272 46.7322 22.6844 46.6555 22.8044 46.5022L26.0889 42.3021L29.467 43.6972L23.2727 51.6386C23.0331 51.9461 23.0332 52.4444 23.2732 52.7514C23.3932 52.905 23.5503 52.9818 23.7074 52.9818C23.8647 52.9818 24.0221 52.905 24.1421 52.7511L30.7808 44.2398L33.8135 45.4923L13.279 70.3846V65.3568ZM56.7319 49.9214V53.6955L53.975 50.2538C52.8967 48.9132 51.1679 48.9459 50.1211 50.327L49.3858 51.2973C48.8788 51.9663 48.6054 52.8483 48.6164 53.7806C48.6273 54.713 48.9209 55.5841 49.4416 56.2316L56.732 65.3566V70.3863L36.165 45.4923L39.9388 43.9348L43.8003 48.8811C43.9201 49.0348 44.0774 49.1117 44.2347 49.1117C44.3919 49.1117 44.5492 49.0348 44.6691 48.8811C44.909 48.5737 44.909 48.0754 44.6691 47.7681L41.2531 43.3924L47.792 40.6937L56.7319 49.9214ZM35.6028 44.0705V40.8418C35.6706 40.2533 36.5402 34.3841 44.1955 33.8641C55.6828 33.0838 63.57 29.7946 66.4279 28.4167C66.7305 28.2708 66.893 27.8497 66.7998 27.4532L61.12 3.28861L62.3642 2.70291L68.6296 30.4401L35.6028 44.0705Z" fill="url(#paint0_linear_1149_571)"/>
<defs>
<linearGradient id="paint0_linear_1149_571" x1="35" y1="37.3902" x2="70" y2="37.3902" gradientUnits="userSpaceOnUse">
<stop stop-color="#9B7D24"/>
<stop offset="1" stop-color="#D7B550"/>
</linearGradient>
</defs>
</svg>
