<svg width="376" height="650" viewBox="0 0 376 650" fill="none" xmlns="http://www.w3.org/2000/svg">
<rect x="41.5679" y="308.902" width="293.385" height="250.99" fill="#23211F" fill-opacity="0.8"/>
<line x1="188.258" y1="160.216" x2="188.258" y2="0.00180054" stroke="#100F0E" stroke-width="6"/>
<path d="M360.562 305.452C362.277 305.452 363.669 304.386 363.669 303.069V295.762H372.889C374.604 295.762 375.996 294.697 375.996 293.38V277.976C375.996 276.66 374.604 275.594 372.889 275.594H322.873C314.915 231.173 239.71 204.013 205.182 193.79C205.721 192.529 206.019 191.19 206.019 189.795C206.019 184.388 201.65 179.739 195.387 177.652C197.619 176.161 199.032 174.009 199.032 171.608C199.032 168.441 196.584 165.697 193.013 164.35L191.395 154.497C198.342 153.309 203.535 148.564 203.535 142.879V142.085C203.535 135.507 196.582 130.174 188 130.174C179.418 130.174 172.465 135.507 172.465 142.085V142.879C172.465 148.564 177.66 153.309 184.605 154.497L182.987 164.35C179.414 165.698 176.968 168.441 176.968 171.608C176.968 174.009 178.381 176.159 180.609 177.652C174.352 179.738 169.981 184.386 169.981 189.795C169.981 191.188 170.279 192.529 170.818 193.79C136.288 204.013 61.0828 231.173 53.1266 275.594H3.10706C1.39196 275.594 0 276.66 0 277.976V293.38C0 294.697 1.39196 295.762 3.10706 295.762H12.3268V303.069C12.3268 304.386 13.7187 305.452 15.4338 305.452H22.2093V563.182H15.4338C13.7187 563.182 12.3268 564.247 12.3268 565.564V572.866H3.10706C1.39196 572.866 0 573.932 0 575.249V590.657C0 591.973 1.39196 593.039 3.10706 593.039H69.4283C105.822 631.139 188.002 650.002 188.002 650.002C188.002 650.002 270.182 631.139 306.576 593.039H372.893C374.608 593.039 376 591.973 376 590.657V575.249C376 573.932 374.608 572.866 372.893 572.866H363.673V565.564C363.673 564.247 362.281 563.182 360.566 563.182H353.793V305.452H360.562ZM111.459 546.874H55.9561V383.187C55.9561 343.919 83.7042 318.186 83.7042 318.186C83.7042 318.186 111.457 343.919 111.457 383.187V546.874H111.459ZM236.365 546.874H139.629V383.187C139.629 343.919 188 318.186 188 318.186C188 318.186 236.367 343.919 236.367 383.187V546.874H236.365ZM320.04 546.874H264.537V383.187C264.537 343.919 292.285 318.186 292.285 318.186C292.285 318.186 320.038 343.919 320.038 383.187V546.874H320.04Z" fill="#100F0E"/>
<path d="M188.263 82.0508C196.845 82.0508 203.798 76.7178 203.798 70.1396V68.6102C203.798 62.032 196.845 56.699 188.263 56.699C179.681 56.699 172.728 62.032 172.728 68.6102V70.1396C172.728 76.7162 179.681 82.0508 188.263 82.0508Z" fill="#100F0E"/>
<path d="M188.263 45.3771C196.845 45.3771 203.798 40.0456 203.798 33.4659V31.9381C203.798 25.3599 196.845 20.0269 188.263 20.0269C179.681 20.0269 172.728 25.3599 172.728 31.9381V33.4659C172.728 40.044 179.681 45.3771 188.263 45.3771Z" fill="#100F0E"/>
<path d="M188.263 118.723C196.845 118.723 203.798 113.39 203.798 106.812V105.284C203.798 98.7058 196.845 93.3728 188.263 93.3728C179.681 93.3728 172.728 98.7058 172.728 105.284V106.812C172.728 113.388 179.681 118.723 188.263 118.723Z" fill="#100F0E"/>
</svg>
