<svg width="39" height="54" viewBox="0 0 39 54" fill="none" xmlns="http://www.w3.org/2000/svg">
<path d="M19.5 38C29.7173 38 38 29.7173 38 19.5C38 9.28273 29.7173 1 19.5 1C9.28273 1 1 9.28273 1 19.5C1 29.7173 9.28273 38 19.5 38Z" fill="url(#paint0_linear_1193_6222)" stroke="#101010" stroke-opacity="0.5"/>
<path d="M7.70133 33.7453L7.187 35.3307L5.50384 41.4698C3.84323 47.527 3.01292 50.5554 4.12092 52.2133C4.50923 52.7945 5.03014 53.2607 5.63461 53.5686C7.35939 54.4468 10.0225 53.059 15.3486 50.2837C17.1209 49.3603 18.0071 48.8986 18.9485 48.7982C19.2976 48.7612 19.6491 48.7612 19.9982 48.7982C20.9396 48.8986 21.8258 49.3603 23.5981 50.2837C28.9242 53.059 31.5874 54.4468 33.3121 53.5686C33.9166 53.2607 34.4375 52.7945 34.8257 52.2133C35.9339 50.5554 35.1035 47.527 33.443 41.4698L31.7597 35.3307L31.2454 33.7453C28.0468 36.3865 23.9453 37.9736 19.4734 37.9736C15.0014 37.9736 10.8998 36.3865 7.70133 33.7453Z" fill="url(#paint1_radial_1193_6222)"/>
<g clip-path="url(#clip0_1193_6222)">
<path d="M15.3096 27.5212L15.1907 26.1654L19.6624 25.6659L18.4256 26.9027C18.489 26.5697 18.5445 26.205 18.5921 25.8086C18.6555 25.4122 18.7031 25.0395 18.7348 24.6907C18.7823 24.3418 18.8061 24.0881 18.8061 23.9295V14.2012L19.8051 14.8196L15.6188 16.5084L14.9053 15.3429L19.9003 11.4182L21.4701 11.7037C21.4543 12.3221 21.4305 13.0119 21.3988 13.773C21.3671 14.5183 21.3433 15.216 21.3274 15.8662C21.3116 16.5005 21.3036 16.9682 21.3036 17.2695V23.216C21.3036 23.5648 21.3195 23.9454 21.3512 24.3577C21.3829 24.77 21.4226 25.1981 21.4701 25.6421C21.5177 26.0702 21.5653 26.4905 21.6128 26.9027L20.4236 25.7372L24.1104 25.9751L23.9677 27.4022H19.6148C19.5038 27.4022 19.266 27.4022 18.9013 27.4022C18.5524 27.4181 18.1481 27.434 17.6882 27.4498C17.2442 27.4657 16.8002 27.4736 16.3562 27.4736C15.9281 27.4895 15.5792 27.5053 15.3096 27.5212Z" fill="#101010"/>
</g>
<defs>
<linearGradient id="paint0_linear_1193_6222" x1="4.5" y1="8.5" x2="51.5" y2="50.5" gradientUnits="userSpaceOnUse">
<stop stop-color="#FFD300"/>
<stop offset="1" stop-color="#101010"/>
</linearGradient>
<radialGradient id="paint1_radial_1193_6222" cx="0" cy="0" r="1" gradientUnits="userSpaceOnUse" gradientTransform="translate(10 30.5) rotate(43.2285) scale(34.3111 54.1764)">
<stop stop-color="#AE1313"/>
<stop offset="0.275724" stop-color="#942B2B"/>
<stop offset="0.58" stop-color="#711515"/>
<stop offset="1" stop-color="#520404"/>
</radialGradient>
<clipPath id="clip0_1193_6222">
<rect width="9.27643" height="16.1743" fill="white" transform="translate(14.875 11.3864)"/>
</clipPath>
</defs>
</svg>
