<svg width="39" height="54" viewBox="0 0 39 54" fill="none" xmlns="http://www.w3.org/2000/svg">
<path d="M19.5 38C29.7173 38 38 29.7173 38 19.5C38 9.28273 29.7173 1 19.5 1C9.28273 1 1 9.28273 1 19.5C1 29.7173 9.28273 38 19.5 38Z" fill="url(#paint0_linear_1193_6184)" stroke="#101010" stroke-opacity="0.5"/>
<path d="M7.70133 33.7453L7.187 35.3307L5.50384 41.4698C3.84323 47.527 3.01292 50.5554 4.12092 52.2133C4.50923 52.7945 5.03014 53.2607 5.63461 53.5686C7.35939 54.4468 10.0225 53.059 15.3486 50.2837C17.1209 49.3603 18.0071 48.8986 18.9485 48.7982C19.2976 48.7612 19.6491 48.7612 19.9982 48.7982C20.9396 48.8986 21.8258 49.3603 23.5981 50.2837C28.9242 53.059 31.5874 54.4468 33.3121 53.5686C33.9166 53.2607 34.4375 52.7945 34.8257 52.2133C35.9339 50.5554 35.1035 47.527 33.443 41.4698L31.7597 35.3307L31.2454 33.7453C28.0468 36.3865 23.9453 37.9736 19.4734 37.9736C15.0014 37.9736 10.8998 36.3865 7.70133 33.7453Z" fill="url(#paint1_radial_1193_6184)"/>
<path d="M24.0779 27.8015L21.3208 27.7302H14.3328L14 25.7817C15.2518 24.5778 16.3056 23.5402 17.1612 22.669C18.0169 21.7977 18.7141 21.0453 19.2529 20.4116C19.7916 19.778 20.2036 19.2315 20.4889 18.7721C20.7899 18.2968 20.9959 17.8691 21.1069 17.4889C21.2178 17.0929 21.2732 16.681 21.2732 16.2533C21.2732 15.4771 21.0435 14.8593 20.5839 14.3999C20.1244 13.9247 19.5143 13.6871 18.7537 13.6871C18.2308 13.6871 17.7317 13.7742 17.2563 13.9485C16.7968 14.1069 16.2976 14.3841 15.7589 14.7801L16.7096 13.2356C16.6463 13.4732 16.5749 13.7504 16.4957 14.0673C16.4323 14.3682 16.3769 14.6455 16.3293 14.8989C16.2818 15.1365 16.258 15.3029 16.258 15.3979L16.2818 16.4672L14.7844 16.5385L14.5229 12.8554C15.331 12.5386 16.0837 12.3168 16.7809 12.1901C17.4782 12.0634 18.2388 12 19.0627 12C20.6473 12 21.8754 12.3406 22.7469 13.0218C23.6343 13.7029 24.0779 14.6692 24.0779 15.9207C24.0779 16.6335 23.9512 17.3226 23.6976 17.9879C23.46 18.6533 23.0321 19.374 22.4141 20.1502C21.812 20.9106 20.9801 21.8056 19.9184 22.8353C18.8726 23.865 17.5257 25.0927 15.8777 26.5184L15.854 25.6154H20.8216C21.0118 25.6154 21.2812 25.5996 21.6298 25.5679C21.9942 25.5204 22.3824 25.4728 22.7944 25.4253C23.2064 25.3778 23.5867 25.3303 23.9353 25.2827L22.4854 26.4471C22.6122 26.0986 22.739 25.7659 22.8657 25.4491C22.9925 25.1164 23.1034 24.7838 23.1985 24.4511L23.3411 23.4056L24.8385 23.5244L24.6246 27.3262L24.0779 27.8015Z" fill="#101010"/>
<defs>
<linearGradient id="paint0_linear_1193_6184" x1="4.5" y1="8.5" x2="51.5" y2="50.5" gradientUnits="userSpaceOnUse">
<stop stop-color="#C0C0C0"/>
<stop offset="1" stop-color="#101010"/>
</linearGradient>
<radialGradient id="paint1_radial_1193_6184" cx="0" cy="0" r="1" gradientUnits="userSpaceOnUse" gradientTransform="translate(10 30.5) rotate(43.2285) scale(34.3111 54.1764)">
<stop stop-color="#AE1313"/>
<stop offset="0.275724" stop-color="#942B2B"/>
<stop offset="0.58" stop-color="#711515"/>
<stop offset="1" stop-color="#520404"/>
</radialGradient>
</defs>
</svg>
