<svg width="39" height="54" viewBox="0 0 39 54" fill="none" xmlns="http://www.w3.org/2000/svg">
<path d="M19.5 38C29.7173 38 38 29.7173 38 19.5C38 9.28273 29.7173 1 19.5 1C9.28273 1 1 9.28273 1 19.5C1 29.7173 9.28273 38 19.5 38Z" fill="url(#paint0_linear_1193_6203)" stroke="#101010" stroke-opacity="0.5"/>
<path d="M7.70133 33.7453L7.187 35.3307L5.50384 41.4698C3.84323 47.527 3.01292 50.5554 4.12092 52.2133C4.50923 52.7945 5.03014 53.2607 5.63461 53.5686C7.35939 54.4468 10.0225 53.059 15.3486 50.2837C17.1209 49.3603 18.0071 48.8986 18.9485 48.7982C19.2976 48.7612 19.6491 48.7612 19.9982 48.7982C20.9396 48.8986 21.8258 49.3603 23.5981 50.2837C28.9242 53.059 31.5874 54.4468 33.3121 53.5686C33.9166 53.2607 34.4375 52.7945 34.8257 52.2133C35.9339 50.5554 35.1035 47.527 33.443 41.4698L31.7597 35.3307L31.2454 33.7453C28.0468 36.3865 23.9453 37.9736 19.4734 37.9736C15.0014 37.9736 10.8998 36.3865 7.70133 33.7453Z" fill="url(#paint1_radial_1193_6203)"/>
<path d="M15.4516 28.2252L15 26.7757C16.4103 26.5698 17.6304 26.2213 18.6604 25.7302C19.7062 25.255 20.5143 24.6768 21.0848 23.9956C21.6711 23.3144 21.9642 22.5857 21.9642 21.8095C21.9642 20.9383 21.6949 20.2571 21.1561 19.766C20.6332 19.275 19.9201 19.0294 19.0169 19.0294C18.7158 19.0294 18.4148 19.0373 18.1137 19.0532C17.8285 19.069 17.5987 19.0849 17.4244 19.1007L17.0916 17.7463C18.5495 17.5562 19.6349 17.1602 20.348 16.5582C21.061 15.9404 21.4176 15.1325 21.4176 14.1345C21.4176 13.2949 21.2116 12.6613 20.7996 12.2336C20.4034 11.79 19.833 11.5683 19.0882 11.5683C18.597 11.5683 18.1612 11.6316 17.7809 11.7584C17.4165 11.8851 17.0441 12.091 16.6638 12.3762L17.5195 10.9267C17.4561 11.1643 17.3848 11.4415 17.3056 11.7584C17.2422 12.0593 17.1867 12.3366 17.1392 12.59C17.0916 12.8435 17.0679 13.0177 17.0679 13.1128L17.0916 14.2296L15.5704 14.3246L15.2615 10.6891C15.9745 10.4515 16.64 10.2772 17.258 10.1663C17.8919 10.0554 18.5415 10 19.2071 10C20.8075 10 22.0276 10.3406 22.8675 11.0218C23.7231 11.6871 24.151 12.6692 24.151 13.9682C24.151 14.9187 23.834 15.7582 23.2002 16.4869C22.5822 17.2156 21.7028 17.7621 20.5619 18.1265L20.5381 17.6512C21.4096 17.7463 22.1623 17.9839 22.7961 18.3641C23.43 18.7284 23.9212 19.1957 24.2698 19.766C24.6343 20.3363 24.8165 20.9779 24.8165 21.6907C24.8165 22.5145 24.5867 23.2907 24.1272 24.0194C23.6835 24.748 23.0418 25.4055 22.2019 25.9916C21.3621 26.5777 20.3717 27.0608 19.2308 27.441C18.0899 27.8212 16.8302 28.0826 15.4516 28.2252Z" fill="#101010"/>
<defs>
<linearGradient id="paint0_linear_1193_6203" x1="4.5" y1="8.5" x2="51.5" y2="50.5" gradientUnits="userSpaceOnUse">
<stop stop-color="#CD7F32"/>
<stop offset="1" stop-color="#101010"/>
</linearGradient>
<radialGradient id="paint1_radial_1193_6203" cx="0" cy="0" r="1" gradientUnits="userSpaceOnUse" gradientTransform="translate(10 30.5) rotate(43.2285) scale(34.3111 54.1764)">
<stop stop-color="#AE1313"/>
<stop offset="0.275724" stop-color="#942B2B"/>
<stop offset="0.58" stop-color="#711515"/>
<stop offset="1" stop-color="#520404"/>
</radialGradient>
</defs>
</svg>
